<svg version="1.1" preserveAspectRatio="none" xmlns="http://www.w3.org/2000/svg" width="500" height="500" viewBox="0 0 500 500"><rect width="100%" height="100%" fill="#FFFFFF" fill-opacity="1"/><svg viewBox="292.227 445.282 591.9864 244.4" width="333" height="137.4781582820146" x="83.5px" y="181.2609px" xmlns="http://www.w3.org/2000/svg" xmlns:xlink="http://www.w3.org/1999/xlink" preserveAspectRatio="none"><defs></defs><style>.aUPl23inifillColor {fill:#F7F7F7;fill-opacity:0;}.companyName {fill:#BC4823;fill-opacity:1;}.icon3-str {stroke:#4B689C;stroke-opacity:1;}.shapeStroke-str {stroke:#4B689C;stroke-opacity:1;}.text {fill:#9A7E5F;fill-opacity:1;}</style><g opacity="1" transform="rotate(0 292.227 445.282)">
<svg width="591.9864" height="244.4" x="292.227" y="445.282" version="1.1" preserveAspectRatio="none" viewBox="0 0 591.9864 244.4">
  <defs><rect x="5.499" y="5.499" width="580.9884" height="233.40200000000002" rx="0%" ry="0%" id="id-UPl23ini1709102176305"></rect></defs><use class="aUPl23inifillColor shapeStroke-str" style="stroke-width:10.998;" xlink:href="#id-UPl23ini1709102176305"></use>
</svg>
</g><g opacity="1" transform="rotate(0 322.227 621.282)">
<svg width="531.9864" height="38.4" x="322.227" y="621.282" version="1.1" preserveAspectRatio="none" viewBox="3.0859 -27.7734 453.4844 32.7344">
  <g transform="matrix(1 0 0 1 0 0)" class="text"><path id="id-6izo4zJp16" d="M9.92-27.77L9.92-27.77Q10.70-27.70 12.23-27.68Q13.75-27.66 15.51-27.66L15.51-27.66Q17.19-27.66 18.73-27.68Q20.27-27.70 21.09-27.70L21.09-27.70Q21.64-27.62 21.91-27.19Q22.19-26.76 22.19-26.25L22.19-26.25Q22.19-25.59 21.86-25.27Q21.52-24.96 20.90-24.86Q20.27-24.77 19.39-24.79Q18.52-24.80 17.46-24.80L17.46-24.80Q16.33-24.80 15.25-24.80Q14.18-24.80 13.16-24.84L13.16-24.84Q13.16-23.59 13.20-22.42Q13.24-21.25 13.36-20.12L13.36-20.12Q14.02-20 15-19.94Q15.98-19.88 17.07-19.88L17.07-19.88Q18.20-19.88 19.30-20Q20.39-20.12 21.33-20.12L21.33-20.12Q21.84-20.12 22.17-19.69Q22.50-19.26 22.50-18.71L22.50-18.71Q22.50-18.28 22.30-17.93Q22.11-17.58 21.72-17.46L21.72-17.46Q20.74-17.34 19.63-17.27Q18.52-17.19 17.42-17.19L17.42-17.19Q17.54-15.90 17.64-14.57Q17.73-13.24 17.73-11.76L17.73-11.76Q20.55-11.88 23.20-12.21Q25.86-12.54 27.89-13.09L27.89-13.09L28.01-13.09Q28.40-13.09 28.71-12.60Q29.02-12.11 29.02-11.60L29.02-11.60Q29.02-11.17 28.83-10.86Q28.63-10.55 28.13-10.43L28.13-10.43Q26.64-10 24.79-9.71Q22.93-9.41 20.92-9.20Q18.91-8.98 16.78-8.89Q14.65-8.79 12.62-8.79L12.62-8.79Q10.16-8.79 7.95-8.93Q5.74-9.06 4.06-9.34L4.06-9.34Q3.55-9.41 3.32-9.75Q3.09-10.08 3.09-10.51L3.09-10.51Q3.09-11.09 3.38-11.58Q3.67-12.07 4.30-12.07L4.30-12.07Q5.90-11.84 7.81-11.70Q9.73-11.56 11.84-11.56L11.84-11.56Q12.54-11.56 13.26-11.58Q13.98-11.60 14.77-11.64L14.77-11.64Q14.77-12.93 14.67-14.45Q14.57-15.98 14.57-17.23L14.57-17.23Q12.77-17.23 11.68-17.70Q10.59-18.16 10.47-19.73L10.47-19.73Q10.35-21.09 10.29-22.32Q10.23-23.55 10.23-24.92L10.23-24.92L10-24.92Q9.10-24.92 8.77-25.39Q8.44-25.86 8.44-26.41L8.44-26.41Q8.52-26.91 8.89-27.34Q9.26-27.77 9.92-27.77ZM17.03-4.69L17.03-4.69Q17.38-4.96 17.81-4.96L17.81-4.96Q18.79-4.84 19.69-4.38Q20.59-3.91 21.25-3.20Q21.91-2.50 22.32-1.68Q22.73-0.86 22.73-0.04L22.73-0.04Q22.73 1.21 22.27 2.15Q21.80 3.09 21.04 3.71Q20.27 4.34 19.34 4.65Q18.40 4.96 17.50 4.96L17.50 4.96Q16.60 4.96 15.64 4.65Q14.69 4.34 13.91 3.75Q13.13 3.16 12.64 2.32Q12.15 1.48 12.15 0.43L12.15 0.43Q12.15-0.20 12.50-1.09Q12.85-1.99 13.44-2.83Q14.02-3.67 14.75-4.28Q15.47-4.88 16.21-4.88L16.21-4.88Q16.64-4.88 17.03-4.69ZM17.15-2.54L17.15-2.54Q16.68-2.23 16.29-1.95Q15.90-1.68 15.64-1.39Q15.39-1.09 15.23-0.70Q15.08-0.31 15.08 0.27L15.08 0.27Q15.08 1.05 15.63 1.72Q16.17 2.38 17.46 2.38L17.46 2.38Q18.44 2.38 19.16 1.84Q19.88 1.29 19.88 0.16L19.88 0.16Q19.88-0.51 19.69-0.88Q19.49-1.25 19.14-1.52Q18.79-1.80 18.28-2.01Q17.77-2.23 17.15-2.54Z M41.11-26.76L41.11-26.76Q41.11-27.19 41.60-27.48Q42.09-27.77 42.64-27.77L42.64-27.77Q43.10-27.77 43.50-27.60Q43.89-27.42 44.00-26.99L44.00-26.99Q44.12-25.70 44.14-24.41Q44.16-23.13 44.16-21.84L44.16-21.84Q45.68-21.91 47.07-22.03Q48.46-22.15 49.55-22.30L49.55-22.30Q49.98-22.30 50.23-21.84Q50.49-21.37 50.49-20.78L50.49-20.78Q50.49-20.23 50.16-19.94Q49.82-19.65 49.18-19.51Q48.53-19.38 47.62-19.34Q46.70-19.30 45.53-19.26L45.53-19.26Q46.46-18.59 47.07-17.60Q47.67-16.60 47.67-15.59L47.67-15.59Q47.67-14.69 47.38-13.98Q47.09-13.28 46.64-12.73Q46.19-12.19 45.62-11.80Q45.06-11.41 44.55-11.21L44.55-11.21Q44.55-9.88 44.65-8.34Q44.75-6.80 44.86-5.51L44.86-5.51Q48.18-5.59 50.57-6.05L50.57-6.05Q50.64-6.05 50.70-6.07Q50.76-6.09 50.84-6.09L50.84-6.09Q51.39-6.09 51.70-5.66Q52.01-5.23 52.01-4.77L52.01-4.77Q52.01-4.10 51.44-3.75Q50.88-3.40 49.84-3.20Q48.81-3.01 47.40-2.93Q46.00-2.85 44.35-2.77L44.35-2.77Q42.71-2.70 41.13-2.66Q39.55-2.62 38.30-2.62L38.30-2.62Q36.66-2.62 36.03-2.89Q35.41-3.16 35.41-4.06L35.41-4.06Q35.41-4.69 35.84-4.98Q36.27-5.27 37.11-5.35Q37.95-5.43 39.18-5.39Q40.41-5.35 42.01-5.39L42.01-5.39Q41.93-6.56 41.85-8.13Q41.78-9.69 41.78-10.86L41.78-10.86Q41.00-10.98 40.27-11.31Q39.55-11.64 38.98-12.21Q38.42-12.77 38.07-13.52Q37.71-14.26 37.71-15.20L37.71-15.20Q37.71-16.25 38.22-17.29Q38.73-18.32 39.63-19.06L39.63-19.06Q39.16-19.06 38.73-19.04Q38.30-19.02 37.87-19.02L37.87-19.02Q36.78-19.02 36.09-19.12Q35.41-19.22 35.04-19.39Q34.67-19.57 34.53-19.84Q34.39-20.12 34.39-20.47L34.39-20.47Q34.39-20.94 34.71-21.31Q35.02-21.68 35.57-21.68L35.57-21.68Q36.00-21.68 36.52-21.64Q37.05-21.60 37.64-21.60L37.64-21.60Q39.32-21.60 41.27-21.72L41.27-21.72Q41.19-22.97 41.15-24.39Q41.11-25.82 41.11-26.76ZM42.52-17.97L42.32-17.97Q41.39-17.50 40.98-16.84Q40.57-16.17 40.57-15.12L40.57-15.12Q40.57-14.38 41.17-13.79Q41.78-13.20 42.64-13.20L42.64-13.20Q42.75-13.20 43.14-13.30Q43.53-13.40 43.92-13.65Q44.32-13.91 44.63-14.34Q44.94-14.77 44.94-15.39L44.94-15.39Q44.94-16.48 44.16-17.23Q43.38-17.97 42.52-17.97L42.52-17.97ZM53.69-23.55L53.69-23.55Q53.53-23.95 53.53-24.14L53.53-24.14Q53.53-24.77 54.00-25.16Q54.47-25.55 55.06-25.55L55.06-25.55Q55.72-25.55 56.19-24.96Q56.66-24.38 56.99-23.54Q57.32-22.70 57.52-21.78Q57.71-20.86 57.83-20.20L57.83-20.20Q57.95-18.79 58.01-17.07Q58.07-15.35 58.10-13.55L58.10-13.55L61.31-13.55Q62.60-13.55 63.30-13.32Q64.00-13.09 64.00-12.07L64.00-12.07Q64.00-11.45 63.63-11.17Q63.26-10.90 62.73-10.80Q62.21-10.70 61.58-10.74Q60.96-10.78 60.45-10.78L60.45-10.78L58.14-10.78Q58.14-8.67 58.10-6.74Q58.07-4.80 57.99-3.40L57.99-3.40Q57.95-2.66 57.46-2.36Q56.97-2.07 56.39-2.07L56.39-2.07Q55.84-2.07 55.43-2.34Q55.02-2.62 55.02-3.16L55.02-3.16Q55.02-4.80 55.12-6.99Q55.21-9.18 55.21-11.56L55.21-11.56Q55.21-13.83 55.12-16.00Q55.02-18.16 54.94-19.80L54.94-19.80L54.43-21.72Q54.32-22.19 54.10-22.66Q53.89-23.13 53.69-23.55Z M86.85-27.77L86.85-27.77Q87.63-27.70 89.16-27.68Q90.68-27.66 92.44-27.66L92.44-27.66Q94.12-27.66 95.66-27.68Q97.20-27.70 98.02-27.70L98.02-27.70Q98.57-27.62 98.85-27.19Q99.12-26.76 99.12-26.25L99.12-26.25Q99.12-25.59 98.79-25.27Q98.45-24.96 97.83-24.86Q97.20-24.77 96.33-24.79Q95.45-24.80 94.39-24.80L94.39-24.80Q93.26-24.80 92.19-24.80Q91.11-24.80 90.10-24.84L90.10-24.84Q90.10-23.59 90.13-22.42Q90.17-21.25 90.29-20.12L90.29-20.12Q90.95-20 91.93-19.94Q92.91-19.88 94.00-19.88L94.00-19.88Q95.13-19.88 96.23-20Q97.32-20.12 98.26-20.12L98.26-20.12Q98.77-20.12 99.10-19.69Q99.43-19.26 99.43-18.71L99.43-18.71Q99.43-18.28 99.24-17.93Q99.04-17.58 98.65-17.46L98.65-17.46Q97.67-17.34 96.56-17.27Q95.45-17.19 94.35-17.19L94.35-17.19Q94.47-15.90 94.57-14.57Q94.67-13.24 94.67-11.76L94.67-11.76Q97.48-11.88 100.13-12.21Q102.79-12.54 104.82-13.09L104.82-13.09L104.94-13.09Q105.33-13.09 105.64-12.60Q105.95-12.11 105.95-11.60L105.95-11.60Q105.95-11.17 105.76-10.86Q105.56-10.55 105.06-10.43L105.06-10.43Q103.57-10 101.72-9.71Q99.86-9.41 97.85-9.20Q95.84-8.98 93.71-8.89Q91.58-8.79 89.55-8.79L89.55-8.79Q87.09-8.79 84.88-8.93Q82.67-9.06 80.99-9.34L80.99-9.34Q80.49-9.41 80.25-9.75Q80.02-10.08 80.02-10.51L80.02-10.51Q80.02-11.09 80.31-11.58Q80.60-12.07 81.23-12.07L81.23-12.07Q82.83-11.84 84.74-11.70Q86.66-11.56 88.77-11.56L88.77-11.56Q89.47-11.56 90.19-11.58Q90.92-11.60 91.70-11.64L91.70-11.64Q91.70-12.93 91.60-14.45Q91.50-15.98 91.50-17.23L91.50-17.23Q89.70-17.23 88.61-17.70Q87.52-18.16 87.40-19.73L87.40-19.73Q87.28-21.09 87.22-22.32Q87.17-23.55 87.17-24.92L87.17-24.92L86.93-24.92Q86.03-24.92 85.70-25.39Q85.37-25.86 85.37-26.41L85.37-26.41Q85.45-26.91 85.82-27.34Q86.19-27.77 86.85-27.77ZM93.96-4.69L93.96-4.69Q94.31-4.96 94.74-4.96L94.74-4.96Q95.72-4.84 96.62-4.38Q97.52-3.91 98.18-3.20Q98.85-2.50 99.26-1.68Q99.67-0.86 99.67-0.04L99.67-0.04Q99.67 1.21 99.20 2.15Q98.73 3.09 97.97 3.71Q97.20 4.34 96.27 4.65Q95.33 4.96 94.43 4.96L94.43 4.96Q93.53 4.96 92.58 4.65Q91.62 4.34 90.84 3.75Q90.06 3.16 89.57 2.32Q89.08 1.48 89.08 0.43L89.08 0.43Q89.08-0.20 89.43-1.09Q89.78-1.99 90.37-2.83Q90.95-3.67 91.68-4.28Q92.40-4.88 93.14-4.88L93.14-4.88Q93.57-4.88 93.96-4.69ZM94.08-2.54L94.08-2.54Q93.61-2.23 93.22-1.95Q92.83-1.68 92.58-1.39Q92.32-1.09 92.17-0.70Q92.01-0.31 92.01 0.27L92.01 0.27Q92.01 1.05 92.56 1.72Q93.10 2.38 94.39 2.38L94.39 2.38Q95.37 2.38 96.09 1.84Q96.81 1.29 96.81 0.16L96.81 0.16Q96.81-0.51 96.62-0.88Q96.42-1.25 96.07-1.52Q95.72-1.80 95.21-2.01Q94.70-2.23 94.08-2.54Z M124.72-21.09L124.72-21.09Q125.07-21.45 125.54-21.45L125.54-21.45Q126.56-21.33 127.44-20.84Q128.32-20.35 128.98-19.67Q129.65-18.98 130.04-18.14Q130.43-17.30 130.43-16.48L130.43-16.48Q130.43-15.23 129.96-14.26Q129.49-13.28 128.75-12.62Q128.00-11.95 127.07-11.62Q126.13-11.29 125.23-11.29L125.23-11.29Q124.25-11.29 123.32-11.64Q122.38-11.99 121.66-12.64Q120.93-13.28 120.49-14.18Q120.04-15.08 120.04-16.17L120.04-16.17Q120.04-16.84 120.21-17.58Q120.39-18.32 120.78-19.02Q121.17-19.73 121.77-20.29Q122.38-20.86 123.20-21.21L123.20-21.21Q123.40-21.29 123.75-21.29L123.75-21.29Q124.22-21.29 124.72-21.09ZM124.80-18.95L124.80-18.95Q123.94-18.36 123.53-17.73Q123.12-17.11 123.12-16.05L123.12-16.05Q123.12-15.27 123.75-14.65Q124.37-14.02 125.54-14.02L125.54-14.02Q125.82-14.02 126.13-14.20Q126.44-14.38 126.72-14.67Q126.99-14.96 127.18-15.33Q127.38-15.70 127.38-16.13L127.38-16.13Q127.38-17.38 126.72-18.01Q126.05-18.63 124.80-18.95ZM114.84-3.40L114.84-3.40Q115.78-3.28 116.99-3.16Q118.20-3.05 119.53-3.01L119.53-3.01Q119.53-3.71 119.51-4.49Q119.49-5.27 119.45-6.07Q119.41-6.88 119.39-7.58Q119.37-8.28 119.37-8.83L119.37-8.83Q119.37-9.22 119.84-9.43Q120.31-9.65 120.86-9.65L120.86-9.65Q121.60-9.65 121.95-9.30Q122.30-8.95 122.42-8.42Q122.54-7.89 122.50-7.23Q122.46-6.56 122.46-5.98L122.46-5.98Q122.46-5.23 122.50-4.43Q122.54-3.63 122.50-2.89L122.50-2.89Q123.16-2.81 123.86-2.81Q124.57-2.81 125.31-2.81L125.31-2.81Q126.01-2.81 126.72-2.81Q127.42-2.81 128.16-2.89L128.16-2.89Q128.16-3.59 128.14-4.38Q128.12-5.16 128.10-5.94Q128.08-6.72 128.06-7.42Q128.04-8.13 128.04-8.63L128.04-8.63Q128.04-9.06 128.53-9.36Q129.02-9.65 129.57-9.65L129.57-9.65Q130.27-9.65 130.58-9.30Q130.90-8.95 130.99-8.40Q131.09-7.85 131.07-7.23Q131.05-6.60 131.05-6.05L131.05-6.05Q131.05-5.31 131.09-4.53Q131.13-3.75 131.09-3.01L131.09-3.01Q132.73-3.01 134.37-3.24L134.37-3.24Q134.88-3.67 135.41-3.87Q135.93-4.06 136.64-4.34L136.64-4.34Q137.15-4.22 137.46-3.61Q137.77-3.01 137.77-2.42L137.77-2.42Q137.77-1.84 137.50-1.37Q137.22-0.90 136.64-0.82L136.64-0.82Q133.94-0.39 131.03-0.18Q128.12 0.04 125.19 0.04L125.19 0.04Q122.26 0.04 119.57-0.08Q116.87-0.20 114.76-0.51L114.76-0.51Q114.02-0.59 113.77-1.09Q113.51-1.60 113.51-2.11L113.51-2.11Q113.51-2.62 113.86-3.01Q114.22-3.40 114.84-3.40Z M152.16-21.21L152.16-21.21Q152.48-21.52 152.98-21.52L152.98-21.52Q153.84-21.41 154.68-20.92Q155.52-20.43 156.19-19.75Q156.85-19.06 157.28-18.26Q157.71-17.46 157.71-16.64L157.71-16.64Q157.71-15.39 157.26-14.47Q156.81-13.55 156.07-12.95Q155.33-12.34 154.43-12.05Q153.53-11.76 152.67-11.76L152.67-11.76Q151.81-11.76 150.89-12.05Q149.98-12.34 149.23-12.89Q148.49-13.44 148.02-14.28Q147.55-15.12 147.55-16.21L147.55-16.21Q147.55-16.91 147.89-17.83Q148.22-18.75 148.75-19.55Q149.27-20.35 149.94-20.90Q150.60-21.45 151.30-21.45L151.30-21.45Q151.73-21.45 152.16-21.21ZM152.16-18.98L152.16-18.98Q151.34-18.40 150.99-17.87Q150.64-17.34 150.64-16.29L150.64-16.29Q150.64-15.51 151.23-15Q151.81-14.49 152.98-14.49L152.98-14.49Q153.53-14.49 154.08-15Q154.63-15.51 154.63-16.41L154.63-16.41Q154.63-17.03 154.45-17.40Q154.27-17.77 153.94-18.03Q153.61-18.28 153.16-18.48Q152.71-18.67 152.16-18.98ZM166.27-22.07L166.27-22.07Q166.11-22.46 166.11-22.66L166.11-22.66Q166.11-23.28 166.58-23.67Q167.05-24.06 167.63-24.06L167.63-24.06Q168.30-24.06 168.77-23.48Q169.23-22.89 169.57-22.05Q169.90-21.21 170.09-20.29Q170.29-19.38 170.41-18.71L170.41-18.71Q170.56-16.72 170.62-14.59Q170.68-12.46 170.68-10.31L170.68-10.31Q170.68-6.84 170.56-3.87L170.56-3.87Q170.52-3.13 170.05-2.83Q169.59-2.54 169.04-2.54L169.04-2.54Q168.49-2.54 168.04-2.87Q167.59-3.20 167.59-3.79L167.59-3.79L167.59-8.36Q167.59-10.98 167.55-13.50Q167.52-16.02 167.44-18.32L167.44-18.32L166.97-20.23Q166.85-20.70 166.66-21.17Q166.46-21.64 166.27-22.07ZM146.89-6.99L146.89-6.99Q147.36-6.91 148.16-6.91Q148.96-6.91 150.02-6.91L150.02-6.91Q151.62-6.91 153.55-6.95Q155.48-6.99 157.38-7.07Q159.27-7.15 160.91-7.29Q162.55-7.42 163.61-7.62L163.61-7.62Q163.69-7.62 163.73-7.64Q163.77-7.66 163.84-7.66L163.84-7.66Q164.39-7.66 164.72-7.21Q165.05-6.76 165.05-6.29L165.05-6.29Q165.05-5.51 163.96-5.08Q162.87-4.65 160.91-4.41Q158.96-4.18 156.21-4.12Q153.45-4.06 150.13-4.06L150.13-4.06Q148.88-4.06 147.98-4.08Q147.09-4.10 146.50-4.26Q145.91-4.41 145.64-4.75Q145.37-5.08 145.37-5.70L145.37-5.70Q145.37-6.25 145.80-6.62Q146.23-6.99 146.89-6.99Z M196.07-25.82L196.07-25.82Q198.06-25.70 199.68-25.64Q201.30-25.59 202.87-25.59L202.87-25.59Q204.43-25.59 205.99-25.72Q207.55-25.86 209.35-26.05L209.35-26.05Q209.78-26.05 210.03-25.59Q210.29-25.12 210.29-24.57L210.29-24.57Q210.29-23.98 209.72-23.67Q209.15-23.36 208.33-23.22Q207.51-23.09 206.60-23.05Q205.68-23.01 204.98-22.97L204.98-22.97Q205.05-22.27 205.21-21.58Q205.37-20.90 205.70-20.23Q206.03-19.57 206.58-18.95Q207.12-18.32 208.02-17.77L208.02-17.77Q208.65-17.34 209.35-17.34L209.35-17.34Q209.74-17.34 210.19-17.58Q210.64-17.81 211.03-17.81L211.03-17.81Q211.54-17.81 211.89-17.34Q212.24-16.88 212.24-16.29L212.24-16.29Q212.24-15.63 211.52-15.06Q210.80-14.49 209.51-14.49L209.51-14.49Q208.30-14.49 207.32-14.94Q206.34-15.39 205.56-16.11Q204.78-16.84 204.21-17.75Q203.65-18.67 203.30-19.65L203.30-19.65Q202.20-17.89 200.40-16.31Q198.61-14.73 195.99-14.02L195.99-14.02Q195.60-13.95 195.52-13.95L195.52-13.95Q194.98-13.95 194.76-14.34Q194.55-14.73 194.55-15.20L194.55-15.20Q194.55-15.63 194.72-15.98Q194.90-16.33 195.29-16.45L195.29-16.45Q196.85-16.95 197.94-17.68Q199.04-18.40 199.78-19.24Q200.52-20.08 200.99-21.00Q201.46-21.91 201.77-22.85L201.77-22.85Q200.37-22.85 198.90-22.89Q197.44-22.93 195.91-23.09L195.91-23.09Q195.33-23.28 195.09-23.63Q194.86-23.98 194.86-24.41L194.86-24.41Q194.86-25.04 195.19-25.43Q195.52-25.82 196.07-25.82ZM193.18-11.21L193.18-11.21Q194.98-10.82 197.26-10.66Q199.55-10.51 202.05-10.51L202.05-10.51Q204.51-10.51 207.01-10.76Q209.51-11.02 211.85-11.45L211.85-11.45Q212.32-11.91 212.89-12.09Q213.45-12.27 214.04-12.54L214.04-12.54Q214.51-12.42 214.88-11.86Q215.25-11.29 215.25-10.66L215.25-10.66Q215.25-10.12 215.01-9.67Q214.78-9.22 214.19-9.10L214.19-9.10Q211.93-8.55 209.49-8.22Q207.05-7.89 204.58-7.81L204.58-7.81Q204.58-6.68 204.56-5.23Q204.55-3.79 204.53-2.36Q204.51-0.94 204.49 0.29Q204.47 1.52 204.43 2.23L204.43 2.23Q204.31 2.73 203.84 2.89Q203.37 3.05 202.83 3.05L202.83 3.05Q202.28 2.97 201.83 2.71Q201.38 2.46 201.38 1.99L201.38 1.99Q201.38 1.48 201.42 0.33Q201.46-0.82 201.50-2.23Q201.54-3.63 201.58-5.10Q201.62-6.56 201.62-7.73L201.62-7.73L200.83-7.73Q196.50-7.73 193.10-8.32L193.10-8.32Q192.36-8.44 192.10-8.91Q191.85-9.38 191.85-9.88L191.85-9.88Q191.85-10.43 192.20-10.82Q192.55-11.21 193.18-11.21Z M227.06-21.33L227.06-21.33Q227.42-21.68 227.88-21.68L227.88-21.68Q228.90-21.56 229.78-21.07Q230.66-20.59 231.32-19.90Q231.99-19.22 232.38-18.38Q232.77-17.54 232.77-16.72L232.77-16.72Q232.77-15.47 232.30-14.49Q231.83-13.52 231.09-12.85Q230.35-12.19 229.41-11.86Q228.47-11.52 227.57-11.52L227.57-11.52Q226.60-11.52 225.66-11.88Q224.72-12.23 224.00-12.87Q223.28-13.52 222.83-14.41Q222.38-15.31 222.38-16.41L222.38-16.41Q222.38-17.07 222.55-17.81Q222.73-18.55 223.12-19.26Q223.51-19.96 224.11-20.53Q224.72-21.09 225.54-21.45L225.54-21.45Q225.74-21.52 226.09-21.52L226.09-21.52Q226.56-21.52 227.06-21.33ZM227.14-19.18L227.14-19.18Q226.28-18.59 225.87-17.97Q225.46-17.34 225.46-16.29L225.46-16.29Q225.46-15.51 226.09-14.88Q226.71-14.26 227.88-14.26L227.88-14.26Q228.16-14.26 228.47-14.43Q228.78-14.61 229.06-14.90Q229.33-15.20 229.53-15.57Q229.72-15.94 229.72-16.37L229.72-16.37Q229.72-17.62 229.06-18.24Q228.39-18.87 227.14-19.18ZM243.74-25.27L243.74-25.27L243.74-25.47Q243.74-26.09 244.15-26.46Q244.56-26.84 245.11-26.84L245.11-26.84Q245.58-26.84 246.07-26.54Q246.56-26.25 246.63-25.59L246.63-25.59Q246.75-24.80 246.83-23.67Q246.91-22.54 246.97-21.19Q247.03-19.84 247.06-18.38Q247.10-16.91 247.10-15.55L247.10-15.55Q247.10-14.53 247.12-13.50Q247.14-12.46 247.03-11.60Q246.91-10.74 246.54-10.21Q246.17-9.69 245.38-9.69L245.38-9.69Q244.84-9.69 244.45-10.04Q244.06-10.39 244.06-10.98L244.06-10.98Q244.06-11.88 244.10-12.79Q244.13-13.71 244.13-14.69L244.13-14.69Q244.13-17.70 244.04-20.53Q243.94-23.36 243.74-25.27ZM232.88-6.60L232.88-6.60Q232.88-7.27 233.35-7.58Q233.82-7.89 234.37-7.89L234.37-7.89Q235.07-7.89 235.38-7.42Q235.70-6.95 235.81-6.33Q235.93-5.70 235.91-5.08Q235.89-4.45 235.89-4.14L235.89-4.14Q235.93-3.24 236.17-1.91L236.17-1.91Q237.06-1.72 238.55-1.62Q240.03-1.52 241.48-1.52L241.48-1.52Q242.26-1.52 242.94-1.60Q243.63-1.68 244.25-1.68L244.25-1.68Q244.80-1.68 245.07-1.25Q245.35-0.82 245.35-0.27L245.35-0.27Q245.35 0.43 244.88 0.74Q244.41 1.05 243.72 1.17Q243.04 1.29 242.24 1.27Q241.44 1.25 240.78 1.25L240.78 1.25Q239.25 1.25 237.92 1.23Q236.60 1.21 235.60 1.00Q234.60 0.78 233.98 0.23Q233.35-0.31 233.28-1.37L233.28-1.37Q233.20-2.15 233.12-2.75Q233.04-3.36 232.98-3.93Q232.92-4.49 232.90-5.12Q232.88-5.74 232.88-6.60Z M265.25-26.13L265.25-26.13Q266.03-26.13 267.14-26.07Q268.25-26.02 269.43-25.94Q270.60-25.86 271.73-25.76Q272.86-25.66 273.68-25.59L273.68-25.59Q275.01-25.43 275.44-24.75Q275.87-24.06 275.87-23.09L275.87-23.09Q275.83-22.34 275.83-21.35Q275.83-20.35 275.81-19.30Q275.79-18.24 275.75-17.27Q275.72-16.29 275.64-15.59L275.64-15.59Q275.56-15.16 275.09-14.94Q274.62-14.73 274.08-14.73L274.08-14.73Q273.57-14.73 273.20-14.96Q272.83-15.20 272.83-15.74L272.83-15.74Q272.83-16.41 272.86-17.36Q272.90-18.32 272.90-19.34L272.90-19.34L272.90-22.85Q272.24-22.97 271.22-23.05Q270.21-23.13 269.09-23.20Q267.98-23.28 266.93-23.32Q265.87-23.36 265.17-23.40L265.17-23.40Q264.70-23.40 264.47-23.83Q264.23-24.26 264.23-24.77L264.23-24.77Q264.23-25.27 264.49-25.70Q264.74-26.13 265.25-26.13ZM256.89-12.38L256.89-12.38Q258.88-12.11 261.15-11.95Q263.41-11.80 265.87-11.76L265.87-11.76L265.72-15.47Q265.68-16.41 265.62-17.25Q265.56-18.09 265.56-18.63L265.56-18.63Q265.56-19.06 265.99-19.32Q266.42-19.57 266.93-19.57L266.93-19.57Q267.43-19.57 267.88-19.38Q268.33-19.18 268.45-18.71L268.45-18.71Q268.57-17.30 268.65-15.41Q268.72-13.52 268.76-11.76L268.76-11.76Q271.97-11.76 275.11-11.93Q278.25-12.11 280.95-12.46L280.95-12.46Q281.38-12.46 281.73-11.89Q282.08-11.33 282.08-10.74L282.08-10.74Q282.08-10.31 281.89-10.04Q281.69-9.77 281.18-9.73L281.18-9.73Q277.67-9.41 274.11-9.18Q270.56-8.95 266.97-8.95L266.97-8.95Q264.23-8.95 261.67-9.14Q259.11-9.34 256.73-9.65L256.73-9.65Q256.22-9.73 255.97-10.08Q255.72-10.43 255.72-10.86L255.72-10.86Q255.72-11.45 256.01-11.91Q256.30-12.38 256.89-12.38ZM269.86-4.69L269.86-4.69Q270.21-4.96 270.64-4.96L270.64-4.96Q271.61-4.84 272.51-4.38Q273.41-3.91 274.08-3.20Q274.74-2.50 275.15-1.68Q275.56-0.86 275.56-0.04L275.56-0.04Q275.56 1.21 275.09 2.15Q274.62 3.09 273.86 3.71Q273.10 4.34 272.16 4.65Q271.22 4.96 270.33 4.96L270.33 4.96Q269.43 4.96 268.47 4.65Q267.51 4.34 266.73 3.75Q265.95 3.16 265.46 2.32Q264.97 1.48 264.97 0.43L264.97 0.43Q264.97-0.20 265.33-1.09Q265.68-1.99 266.26-2.83Q266.85-3.67 267.57-4.28Q268.29-4.88 269.04-4.88L269.04-4.88Q269.47-4.88 269.86-4.69ZM269.97-2.54L269.97-2.54Q269.50-2.23 269.11-1.95Q268.72-1.68 268.47-1.39Q268.22-1.09 268.06-0.70Q267.90-0.31 267.90 0.27L267.90 0.27Q267.90 1.05 268.45 1.72Q269.00 2.38 270.29 2.38L270.29 2.38Q271.26 2.38 271.99 1.84Q272.71 1.29 272.71 0.16L272.71 0.16Q272.71-0.51 272.51-0.88Q272.32-1.25 271.97-1.52Q271.61-1.80 271.11-2.01Q270.60-2.23 269.97-2.54Z M294.05-12.23L294.05-12.23Q294.37-12.54 294.88-12.54L294.88-12.54Q295.73-12.42 296.57-11.93Q297.41-11.45 298.08-10.76Q298.74-10.08 299.17-9.28Q299.60-8.48 299.60-7.66L299.60-7.66Q299.60-6.41 299.15-5.49Q298.70-4.57 297.96-3.96Q297.22-3.36 296.32-3.07Q295.42-2.77 294.56-2.77L294.56-2.77Q293.70-2.77 292.79-3.07Q291.87-3.36 291.13-3.91Q290.38-4.45 289.91-5.29Q289.45-6.13 289.45-7.23L289.45-7.23Q289.45-7.93 289.78-8.85Q290.11-9.77 290.64-10.57Q291.16-11.37 291.83-11.91Q292.49-12.46 293.20-12.46L293.20-12.46Q293.63-12.46 294.05-12.23ZM294.05-10L294.05-10Q293.23-9.41 292.88-8.89Q292.53-8.36 292.53-7.30L292.53-7.30Q292.53-6.52 293.12-6.02Q293.70-5.51 294.88-5.51L294.88-5.51Q295.42-5.51 295.97-6.02Q296.52-6.52 296.52-7.42L296.52-7.42Q296.52-8.05 296.34-8.42Q296.16-8.79 295.83-9.04Q295.50-9.30 295.05-9.49Q294.60-9.69 294.05-10ZM309.09-16.60L309.09-16.60Q308.98-16.88 308.98-17.15L308.98-17.15Q308.98-17.77 309.43-18.18Q309.88-18.59 310.46-18.59L310.46-18.59Q311.28-18.59 311.81-17.81Q312.34-17.03 312.65-16.04Q312.96-15.04 313.08-14.16Q313.20-13.28 313.23-13.09L313.23-13.09Q313.31-12.34 313.35-11.54Q313.39-10.74 313.39-9.84L313.39-9.84Q313.39-7.62 313.12-5.31Q312.84-3.01 312.45-0.90L312.45-0.90Q312.26-0.16 311.73 0.08Q311.20 0.31 310.66 0.31L310.66 0.31Q310.15 0.23 309.80-0.04Q309.45-0.31 309.45-0.82L309.45-0.82Q309.45-0.98 309.48-1.05L309.48-1.05Q309.91-3.63 310.11-6.04Q310.30-8.44 310.30-10.59L310.30-10.59Q310.30-11.41 310.27-12.09Q310.23-12.77 310.09-13.46Q309.95-14.14 309.72-14.90Q309.48-15.66 309.09-16.60Z M334.21-20.98L334.21-20.98Q334.21-21.68 334.81-22.03Q335.42-22.38 336.01-22.38L336.01-22.38Q336.63-22.30 337.37-22.27Q338.12-22.23 338.90-22.23L338.90-22.23Q340.54-22.23 342.20-22.34Q343.86-22.46 345.23-22.62L345.23-22.62Q345.58-22.62 345.91-22.17Q346.24-21.72 346.24-21.17L346.24-21.17Q346.24-20.66 346.01-20.27Q345.77-19.88 345.23-19.80L345.23-19.80Q343.82-19.61 342.31-19.49Q340.81-19.38 339.33-19.38L339.33-19.38Q338.78-19.38 338.29-19.39Q337.80-19.41 337.30-19.45L337.30-19.45Q337.30-18.09 337.33-16.64Q337.37-15.20 337.57-14.18L337.57-14.18Q337.88-14.14 338.17-14.14Q338.47-14.14 338.78-14.14L338.78-14.14Q340.38-14.14 342.16-14.34Q343.94-14.53 345.69-14.80L345.69-14.80Q346.24-14.80 346.59-14.36Q346.94-13.91 346.94-13.32L346.94-13.32Q346.94-12.73 346.59-12.42Q346.24-12.11 345.64-11.95Q345.03-11.80 344.27-11.74Q343.51-11.68 342.69-11.56L342.69-11.56Q342.73-9.80 342.78-8.36Q342.84-6.91 342.96-5.35L342.96-5.35Q344.72-5.47 346.28-5.61Q347.84-5.74 348.90-5.98L348.90-5.98Q348.98-5.98 349.01-6.00Q349.05-6.02 349.13-6.02L349.13-6.02Q349.64-6.02 349.95-5.63Q350.26-5.23 350.26-4.80L350.26-4.80Q350.26-4.02 349.66-3.61Q349.05-3.20 347.96-3.01Q346.87-2.81 345.30-2.73Q343.74-2.66 341.83-2.58L341.83-2.58Q340.46-2.50 339.11-2.46Q337.76-2.42 336.59-2.42L336.59-2.42Q335.38-2.42 334.54-2.46Q333.70-2.50 333.17-2.68Q332.65-2.85 332.41-3.20Q332.18-3.55 332.18-4.18L332.18-4.18Q332.18-4.61 332.55-4.98Q332.92-5.35 333.47-5.35L333.47-5.35Q333.82-5.35 334.76-5.25Q335.69-5.16 337.06-5.16L337.06-5.16Q337.73-5.16 338.47-5.18Q339.21-5.20 339.99-5.23L339.99-5.23Q339.83-6.33 339.78-7.56Q339.72-8.79 339.72-10.27L339.72-10.27Q339.72-10.51 339.74-10.78Q339.76-11.05 339.76-11.33L339.76-11.33Q339.37-11.29 339.01-11.27Q338.66-11.25 338.35-11.25L338.35-11.25Q337.53-11.25 336.87-11.29Q336.20-11.33 335.69-11.56Q335.19-11.80 334.89-12.27Q334.60-12.73 334.52-13.63L334.52-13.63Q334.40-15.27 334.31-17.25Q334.21-19.22 334.21-20.98ZM352.96-23.32L352.96-23.32Q352.84-23.59 352.84-23.87L352.84-23.87Q352.84-24.41 353.29-24.80Q353.74-25.20 354.37-25.20L354.37-25.20Q355.07-25.20 355.58-24.61Q356.08-24.02 356.40-23.18Q356.71-22.34 356.92-21.41Q357.14-20.47 357.26-19.80L357.26-19.80Q357.37-18.05 357.45-15.88Q357.53-13.71 357.53-11.48L357.53-11.48Q357.53-9.26 357.51-7.15Q357.49-5.04 357.49-3.40L357.49-3.40Q357.49-2.66 357.00-2.36Q356.51-2.07 355.97-2.07L355.97-2.07Q355.38-2.07 354.91-2.40Q354.44-2.73 354.44-3.32L354.44-3.32Q354.44-5.08 354.46-7.17Q354.48-9.26 354.48-11.48L354.48-11.48Q354.48-13.28 354.48-14.92Q354.48-16.56 354.37-18.05Q354.25-19.53 353.92-20.84Q353.58-22.15 352.96-23.32Z M369.42-16.29L369.42-16.29Q369.74-16.60 370.24-16.60L370.24-16.60Q371.10-16.48 371.94-16.00Q372.78-15.51 373.45-14.82Q374.11-14.14 374.54-13.34Q374.97-12.54 374.97-11.72L374.97-11.72Q374.97-10.47 374.52-9.55Q374.07-8.63 373.33-8.03Q372.59-7.42 371.69-7.13Q370.79-6.84 369.93-6.84L369.93-6.84Q369.07-6.84 368.15-7.13Q367.24-7.42 366.49-7.97Q365.75-8.52 365.28-9.36Q364.81-10.20 364.81-11.29L364.81-11.29Q364.81-11.99 365.15-12.91Q365.48-13.83 366.01-14.63Q366.53-15.43 367.20-15.98Q367.86-16.52 368.56-16.52L368.56-16.52Q368.99-16.52 369.42-16.29ZM369.42-14.06L369.42-14.06Q368.60-13.48 368.25-12.95Q367.90-12.42 367.90-11.37L367.90-11.37Q367.90-10.59 368.49-10.08Q369.07-9.57 370.24-9.57L370.24-9.57Q370.79-9.57 371.34-10.08Q371.88-10.59 371.88-11.48L371.88-11.48Q371.88-12.11 371.71-12.48Q371.53-12.85 371.20-13.11Q370.87-13.36 370.42-13.55Q369.97-13.75 369.42-14.06ZM384.07-20.66L384.07-20.66Q383.84-21.02 383.84-21.37L383.84-21.37Q383.84-21.95 384.33-22.44Q384.81-22.93 385.52-22.93L385.52-22.93Q386.06-22.93 386.61-22.44Q387.16-21.95 387.63-21.19Q388.10-20.43 388.47-19.55Q388.84-18.67 389.07-17.93L389.07-17.93Q389.35-16.91 389.56-15.51Q389.78-14.10 389.91-12.56Q390.05-11.02 390.11-9.43Q390.17-7.85 390.17-6.45L390.17-6.45Q390.17-5.66 390.17-4.96Q390.17-4.26 390.01-3.71Q389.85-3.16 389.52-2.85Q389.19-2.54 388.53-2.54L388.53-2.54Q387.94-2.54 387.53-2.83Q387.12-3.13 387.12-3.71L387.12-3.71L387.12-6.09Q387.12-7.70 387.08-9.30Q387.04-10.90 386.88-12.42L386.88-12.42Q386.14-12.38 385.20-12.29Q384.27-12.19 383.31-12.03Q382.35-11.88 381.47-11.70Q380.60-11.52 379.93-11.37L379.93-11.37Q379.81-11.33 379.62-11.33L379.62-11.33Q379.03-11.33 378.70-11.84Q378.37-12.34 378.37-12.89L378.37-12.89Q378.37-13.59 379.19-14.02Q380.01-14.45 381.24-14.69Q382.47-14.92 383.90-15.02Q385.32-15.12 386.49-15.20L386.49-15.20Q386.38-15.66 386.30-16.13Q386.22-16.60 386.10-17.07L386.10-17.07Q385.91-17.77 385.34-18.71Q384.78-19.65 384.07-20.66Z M402.33-19.84L402.33-19.84Q403.00-19.77 403.68-19.77Q404.36-19.77 405.11-19.77L405.11-19.77Q405.85-19.77 406.57-19.77Q407.29-19.77 408.00-19.80L408.00-19.80Q407.96-20.35 407.78-20.86Q407.61-21.37 407.39-21.84Q407.18-22.30 407.02-22.73Q406.86-23.16 406.86-23.55L406.86-23.55Q406.86-24.22 407.33-24.57Q407.80-24.92 408.35-24.92L408.35-24.92Q409.05-24.92 409.54-24.38Q410.03-23.83 410.34-22.99Q410.65-22.15 410.81-21.13Q410.97-20.12 411.02-19.18Q411.08-18.24 411.08-17.52Q411.08-16.80 411.08-16.56L411.08-16.56Q411.08-16.13 411.08-15.27Q411.08-14.41 410.99-13.54Q410.89-12.66 410.59-11.95Q410.30-11.25 409.72-11.13L409.72-11.13Q409.01-11.13 408.43-11.11Q407.84-11.09 407.29-11.09L407.29-11.09Q407.29-9.77 407.39-8.26Q407.49-6.76 407.61-5.51L407.61-5.51Q410.93-5.59 413.31-6.05L413.31-6.05Q413.39-6.05 413.45-6.07Q413.50-6.09 413.58-6.09L413.58-6.09Q414.13-6.09 414.44-5.66Q414.75-5.23 414.75-4.77L414.75-4.77Q414.75-4.10 414.19-3.75Q413.62-3.40 412.59-3.20Q411.55-3.01 410.15-2.93Q408.74-2.85 407.10-2.77L407.10-2.77Q405.46-2.70 403.88-2.66Q402.29-2.62 401.04-2.62L401.04-2.62Q399.40-2.62 398.78-2.89Q398.15-3.16 398.15-4.06L398.15-4.06Q398.15-4.69 398.58-4.98Q399.01-5.27 399.85-5.35Q400.69-5.43 401.92-5.39Q403.15-5.35 404.75-5.39L404.75-5.39Q404.68-6.56 404.60-8.13Q404.52-9.69 404.52-10.86L404.52-10.86L403.43-10.74Q403.04-10.74 402.61-10.68Q402.18-10.63 401.86-10.63L401.86-10.63Q400.73-10.63 400.30-11.41Q399.87-12.19 399.72-13.67Q399.56-15.16 399.52-17.30Q399.48-19.45 399.09-22.15L399.09-22.15L399.09-22.34Q399.09-22.89 399.54-23.26Q399.99-23.63 400.58-23.63L400.58-23.63Q401.20-23.63 401.51-23.34Q401.83-23.05 401.98-22.52Q402.14-21.99 402.18-21.31Q402.22-20.63 402.33-19.84ZM408.08-16.95L408.08-16.95Q407.41-16.91 406.79-16.91Q406.16-16.91 405.50-16.91L405.50-16.91Q403.90-16.91 402.45-17.03L402.45-17.03Q402.45-15.90 402.47-14.90Q402.49-13.91 402.68-13.40L402.68-13.40Q403.86-13.52 405.16-13.65Q406.47-13.79 407.96-13.79L407.96-13.79Q408.04-15 408.06-15.68Q408.08-16.37 408.08-16.95ZM416.43-23.55L416.43-23.55Q416.28-23.95 416.28-24.14L416.28-24.14Q416.28-24.77 416.75-25.16Q417.22-25.55 417.80-25.55L417.80-25.55Q418.47-25.55 418.93-24.96Q419.40-24.38 419.74-23.54Q420.07-22.70 420.26-21.78Q420.46-20.86 420.58-20.20L420.58-20.20Q420.69-18.79 420.75-17.07Q420.81-15.35 420.85-13.55L420.85-13.55L424.05-13.55Q425.34-13.55 426.04-13.32Q426.75-13.09 426.75-12.07L426.75-12.07Q426.75-11.45 426.38-11.17Q426.00-10.90 425.48-10.80Q424.95-10.70 424.33-10.74Q423.70-10.78 423.19-10.78L423.19-10.78L420.89-10.78Q420.89-8.67 420.85-6.74Q420.81-4.80 420.73-3.40L420.73-3.40Q420.69-2.66 420.20-2.36Q419.72-2.07 419.13-2.07L419.13-2.07Q418.58-2.07 418.17-2.34Q417.76-2.62 417.76-3.16L417.76-3.16Q417.76-4.80 417.86-6.99Q417.96-9.18 417.96-11.56L417.96-11.56Q417.96-13.83 417.86-16.00Q417.76-18.16 417.68-19.80L417.68-19.80L417.18-21.72Q417.06-22.19 416.84-22.66Q416.63-23.13 416.43-23.55Z M443.52-21.09L443.52-21.09Q443.88-21.45 444.34-21.45L444.34-21.45Q445.36-21.33 446.24-20.84Q447.12-20.35 447.78-19.67Q448.45-18.98 448.84-18.14Q449.23-17.30 449.23-16.48L449.23-16.48Q449.23-15.23 448.76-14.26Q448.29-13.28 447.55-12.62Q446.80-11.95 445.87-11.62Q444.93-11.29 444.03-11.29L444.03-11.29Q443.05-11.29 442.12-11.64Q441.18-11.99 440.46-12.64Q439.73-13.28 439.29-14.18Q438.84-15.08 438.84-16.17L438.84-16.17Q438.84-16.84 439.01-17.58Q439.19-18.32 439.58-19.02Q439.97-19.73 440.57-20.29Q441.18-20.86 442.00-21.21L442.00-21.21Q442.20-21.29 442.55-21.29L442.55-21.29Q443.02-21.29 443.52-21.09ZM443.60-18.95L443.60-18.95Q442.74-18.36 442.33-17.73Q441.92-17.11 441.92-16.05L441.92-16.05Q441.92-15.27 442.55-14.65Q443.17-14.02 444.34-14.02L444.34-14.02Q444.62-14.02 444.93-14.20Q445.24-14.38 445.52-14.67Q445.79-14.96 445.98-15.33Q446.18-15.70 446.18-16.13L446.18-16.13Q446.18-17.38 445.52-18.01Q444.85-18.63 443.60-18.95ZM433.64-3.40L433.64-3.40Q434.58-3.28 435.79-3.16Q437.00-3.05 438.33-3.01L438.33-3.01Q438.33-3.71 438.31-4.49Q438.29-5.27 438.25-6.07Q438.21-6.88 438.19-7.58Q438.17-8.28 438.17-8.83L438.17-8.83Q438.17-9.22 438.64-9.43Q439.11-9.65 439.66-9.65L439.66-9.65Q440.40-9.65 440.75-9.30Q441.10-8.95 441.22-8.42Q441.34-7.89 441.30-7.23Q441.26-6.56 441.26-5.98L441.26-5.98Q441.26-5.23 441.30-4.43Q441.34-3.63 441.30-2.89L441.30-2.89Q441.96-2.81 442.66-2.81Q443.37-2.81 444.11-2.81L444.11-2.81Q444.81-2.81 445.52-2.81Q446.22-2.81 446.96-2.89L446.96-2.89Q446.96-3.59 446.94-4.38Q446.92-5.16 446.90-5.94Q446.88-6.72 446.86-7.42Q446.84-8.13 446.84-8.63L446.84-8.63Q446.84-9.06 447.33-9.36Q447.82-9.65 448.37-9.65L448.37-9.65Q449.07-9.65 449.38-9.30Q449.70-8.95 449.79-8.40Q449.89-7.85 449.87-7.23Q449.85-6.60 449.85-6.05L449.85-6.05Q449.85-5.31 449.89-4.53Q449.93-3.75 449.89-3.01L449.89-3.01Q451.53-3.01 453.17-3.24L453.17-3.24Q453.68-3.67 454.21-3.87Q454.73-4.06 455.44-4.34L455.44-4.34Q455.95-4.22 456.26-3.61Q456.57-3.01 456.57-2.42L456.57-2.42Q456.57-1.84 456.30-1.37Q456.02-0.90 455.44-0.82L455.44-0.82Q452.74-0.39 449.83-0.18Q446.92 0.04 443.99 0.04L443.99 0.04Q441.06 0.04 438.37-0.08Q435.67-0.20 433.56-0.51L433.56-0.51Q432.82-0.59 432.57-1.09Q432.31-1.60 432.31-2.11L432.31-2.11Q432.31-2.62 432.66-3.01Q433.02-3.40 433.64-3.40Z"/></g>
</svg>
</g><g opacity="1" transform="rotate(0 421.7514 475.282)">
<svg width="332.9376" height="120" x="421.7514" y="475.282" version="1.1" preserveAspectRatio="none" viewBox="4 -29.56 90.44 32.6">
  <g transform="matrix(1 0 0 1 0 0)" class="companyName"><path id="id-D6z1nYkh3" d="M21.84-18.88L21.84-18.88Q22.16-19.20 22.16-19.56L22.16-19.56Q22.16-19.80 22.04-19.98Q21.92-20.16 21.76-20.28L21.76-20.28Q21.24-20.24 20.68-20.14Q20.12-20.04 19.80-20L19.80-20Q19.52-20.04 19.30-20.04Q19.08-20.04 18.92-20.04L18.92-20.04Q18.72-20.04 18.44-20.02Q18.16-20 17.56-20L17.56-20Q16.68-20 15.82-20.08Q14.96-20.16 14.28-20.40L14.28-20.40Q14.24-20.80 14.22-21.28Q14.20-21.76 14.20-22.24L14.20-22.24Q14.20-23.04 14.32-23.60L14.32-23.60Q14.28-23.84 14.26-24.06Q14.24-24.28 14.24-24.48L14.24-24.48Q14.24-25.24 14.40-25.82Q14.56-26.40 14.68-27.08L14.68-27.08L17.76-27.44Q18.12-27.52 18.54-27.56Q18.96-27.60 19.36-27.70Q19.76-27.80 20.02-28Q20.28-28.20 20.28-28.64L20.28-28.64Q20.28-28.96 20.16-29.22Q20.04-29.48 19.76-29.56L19.76-29.56L17.88-29.20Q17.16-29.08 16.58-28.98Q16-28.88 15.46-28.80Q14.92-28.72 14.38-28.66Q13.84-28.60 13.16-28.60L13.16-28.60Q13.04-28.20 12.84-27.26Q12.64-26.32 12.64-25.64L12.64-25.64Q12.64-25 12.74-24.54Q12.84-24.08 12.84-23.68L12.84-23.68Q12.84-23.20 12.80-22.98Q12.76-22.76 12.70-22.50Q12.64-22.24 12.60-21.76Q12.56-21.28 12.56-20.28L12.56-20.28Q12.56-19.36 13.12-18.98Q13.68-18.60 14.40-18.60L14.40-18.60Q14.60-18.60 14.68-18.64L14.68-18.64Q15.16-18.60 15.72-18.48Q16.28-18.36 16.76-18.36L16.76-18.36Q16.92-18.36 17.24-18.44L17.24-18.44Q17.52-18.36 17.80-18.36Q18.08-18.36 18.36-18.36L18.36-18.36Q19.28-18.36 20.18-18.52Q21.08-18.68 21.84-18.88ZM28.56-9.48L28.56-9.48Q28.84-9.72 28.84-10.08L28.84-10.08Q28.84-10.56 28.40-10.88L28.40-10.88Q27.60-11 26.86-11.08Q26.12-11.16 24.98-11.24Q23.84-11.32 22.06-11.44Q20.28-11.56 17.36-11.68L17.36-11.68Q17.24-12.04 17.22-12.50Q17.20-12.96 17.20-13.40L17.20-13.40L17.20-14.56L17.20-14.80Q17.24-14.96 17.24-15.32L17.24-15.32Q17.24-15.68 17.22-16.10Q17.20-16.52 17.10-16.86Q17-17.20 16.86-17.44Q16.72-17.68 16.48-17.68L16.48-17.68Q15.68-17.68 15.50-17.22Q15.32-16.76 15.32-15.84L15.32-15.84Q15.32-15.16 15.36-14.80Q15.40-14.44 15.44-14.14Q15.48-13.84 15.52-13.50Q15.56-13.16 15.56-12.60L15.56-12.60Q15.56-12.40 15.54-12.18Q15.52-11.96 15.52-11.68L15.52-11.68Q15.40-11.68 14.78-11.66Q14.16-11.64 13.28-11.62Q12.40-11.60 11.42-11.58Q10.44-11.56 9.62-11.54Q8.80-11.52 8.26-11.52Q7.72-11.52 7.76-11.52L7.76-11.52Q7.32-11.40 6.64-11.40L6.64-11.40Q6.36-11.40 6.06-11.42Q5.76-11.44 5.52-11.44L5.52-11.44Q4.68-11.44 4.34-11.26Q4-11.08 4-10.64L4-10.64Q4-10.32 4.26-10.02Q4.52-9.72 5.16-9.72L5.16-9.72Q5.52-9.72 5.94-9.74Q6.36-9.76 6.74-9.78Q7.12-9.80 7.40-9.84Q7.68-9.88 7.76-9.92L7.76-9.92Q8.24-9.80 8.96-9.80L8.96-9.80Q9.52-9.80 10.02-9.84Q10.52-9.88 10.72-9.88L10.72-9.88Q10.92-9.88 11.12-9.86Q11.32-9.84 11.76-9.84L11.76-9.84Q12.92-9.84 14.02-9.96Q15.12-10.08 15.44-10.16L15.44-10.16Q15.56-10.12 16-10.06Q16.44-10 17-9.96Q17.56-9.92 18.16-9.90Q18.76-9.88 19.28-9.88L19.28-9.88Q20-9.88 20.20-9.90Q20.40-9.92 20.72-9.92L20.72-9.92Q21.84-9.92 22.78-9.82Q23.72-9.72 24.36-9.72L24.36-9.72Q24.72-9.72 24.88-9.76L24.88-9.76Q25.04-9.72 25.38-9.66Q25.72-9.60 26.16-9.54Q26.60-9.48 27.06-9.44Q27.52-9.40 27.88-9.40L27.88-9.40Q28.24-9.40 28.56-9.48ZM20.84-0.40L20.84-0.48Q20.84-0.56 20.86-0.68Q20.88-0.80 20.88-0.92L20.88-0.92Q20.88-2.24 20.68-3.04Q20.48-3.84 20.12-4.30Q19.76-4.76 19.22-5.02Q18.68-5.28 18.04-5.56L18.04-5.56Q17.64-5.72 17.36-5.82Q17.08-5.92 16.88-5.88L16.88-5.88Q16.80-5.88 16.72-5.84Q16.64-5.80 16.08-5.80L16.08-5.80Q15.88-5.80 15.62-5.82Q15.36-5.84 15.16-5.84L15.16-5.84Q14.76-5.84 14.62-5.84Q14.48-5.84 14.36-5.76Q14.24-5.68 14.08-5.46Q13.92-5.24 13.48-4.76L13.48-4.76Q12.96-4.20 12.70-3.82Q12.44-3.44 12.32-3.12Q12.20-2.80 12.18-2.52Q12.16-2.24 12.16-1.88L12.16-1.88Q12.16-1.40 12.18-0.96Q12.20-0.52 12.34-0.08Q12.48 0.36 12.80 0.84Q13.12 1.32 13.68 1.88L13.68 1.88Q14.40 2.60 14.82 2.82Q15.24 3.04 15.84 3.04L15.84 3.04Q16.60 3.04 17.46 2.80Q18.32 2.56 19.20 2.24L19.20 2.24Q19.44 1.96 19.72 1.58Q20 1.20 20.26 0.84Q20.52 0.48 20.68 0.14Q20.84-0.20 20.84-0.40L20.84-0.40ZM19.08-2.48L19.08-2.48L19.08-2.32Q19.08-2.08 19-1.56Q18.92-1.04 18.78-0.50Q18.64 0.04 18.44 0.48Q18.24 0.92 18 1L18 1Q17.68 1.16 17.14 1.24Q16.60 1.32 15.96 1.36L15.96 1.36Q14.88 1.08 14.38 0.10Q13.88-0.88 13.88-1.84L13.88-1.84Q13.88-2.64 14.26-3.12Q14.64-3.60 15.10-3.86Q15.56-4.12 15.98-4.20Q16.40-4.28 16.52-4.28L16.52-4.28Q17.08-4.28 17.54-4.02Q18-3.76 18.34-3.44Q18.68-3.12 18.88-2.82Q19.08-2.52 19.08-2.48Z M54.64-18.88L54.64-18.88Q54.96-19.20 54.96-19.56L54.96-19.56Q54.96-19.80 54.84-19.98Q54.72-20.16 54.56-20.28L54.56-20.28Q54.04-20.24 53.48-20.14Q52.92-20.04 52.60-20L52.60-20Q52.32-20.04 52.10-20.04Q51.88-20.04 51.72-20.04L51.72-20.04Q51.52-20.04 51.24-20.02Q50.96-20 50.36-20L50.36-20Q49.48-20 48.62-20.08Q47.76-20.16 47.08-20.40L47.08-20.40Q47.04-20.80 47.02-21.28Q47-21.76 47-22.24L47-22.24Q47-23.04 47.12-23.60L47.12-23.60Q47.08-23.84 47.06-24.06Q47.04-24.28 47.04-24.48L47.04-24.48Q47.04-25.24 47.20-25.82Q47.36-26.40 47.48-27.08L47.48-27.08L50.56-27.44Q50.92-27.52 51.34-27.56Q51.76-27.60 52.16-27.70Q52.56-27.80 52.82-28Q53.08-28.20 53.08-28.64L53.08-28.64Q53.08-28.96 52.96-29.22Q52.84-29.48 52.56-29.56L52.56-29.56L50.68-29.20Q49.96-29.08 49.38-28.98Q48.80-28.88 48.26-28.80Q47.72-28.72 47.18-28.66Q46.64-28.60 45.96-28.60L45.96-28.60Q45.84-28.20 45.64-27.26Q45.44-26.32 45.44-25.64L45.44-25.64Q45.44-25 45.54-24.54Q45.64-24.08 45.64-23.68L45.64-23.68Q45.64-23.20 45.60-22.98Q45.56-22.76 45.50-22.50Q45.44-22.24 45.40-21.76Q45.36-21.28 45.36-20.28L45.36-20.28Q45.36-19.36 45.92-18.98Q46.48-18.60 47.20-18.60L47.20-18.60Q47.40-18.60 47.48-18.64L47.48-18.64Q47.96-18.60 48.52-18.48Q49.08-18.36 49.56-18.36L49.56-18.36Q49.72-18.36 50.04-18.44L50.04-18.44Q50.32-18.36 50.60-18.36Q50.88-18.36 51.16-18.36L51.16-18.36Q52.08-18.36 52.98-18.52Q53.88-18.68 54.64-18.88ZM61.36-9.48L61.36-9.48Q61.64-9.72 61.64-10.08L61.64-10.08Q61.64-10.56 61.20-10.88L61.20-10.88Q60.40-11 59.66-11.08Q58.92-11.16 57.78-11.24Q56.64-11.32 54.86-11.44Q53.08-11.56 50.16-11.68L50.16-11.68Q50.04-12.04 50.02-12.50Q50-12.96 50-13.40L50-13.40L50-14.56L50-14.80Q50.04-14.96 50.04-15.32L50.04-15.32Q50.04-15.68 50.02-16.10Q50-16.52 49.90-16.86Q49.80-17.20 49.66-17.44Q49.52-17.68 49.28-17.68L49.28-17.68Q48.48-17.68 48.30-17.22Q48.12-16.76 48.12-15.84L48.12-15.84Q48.12-15.16 48.16-14.80Q48.20-14.44 48.24-14.14Q48.28-13.84 48.32-13.50Q48.36-13.16 48.36-12.60L48.36-12.60Q48.36-12.40 48.34-12.18Q48.32-11.96 48.32-11.68L48.32-11.68Q48.20-11.68 47.58-11.66Q46.96-11.64 46.08-11.62Q45.20-11.60 44.22-11.58Q43.24-11.56 42.42-11.54Q41.60-11.52 41.06-11.52Q40.52-11.52 40.56-11.52L40.56-11.52Q40.12-11.40 39.44-11.40L39.44-11.40Q39.16-11.40 38.86-11.42Q38.56-11.44 38.32-11.44L38.32-11.44Q37.48-11.44 37.14-11.26Q36.80-11.08 36.80-10.64L36.80-10.64Q36.80-10.32 37.06-10.02Q37.32-9.72 37.96-9.72L37.96-9.72Q38.32-9.72 38.74-9.74Q39.16-9.76 39.54-9.78Q39.92-9.80 40.20-9.84Q40.48-9.88 40.56-9.92L40.56-9.92Q41.04-9.80 41.76-9.80L41.76-9.80Q42.32-9.80 42.82-9.84Q43.32-9.88 43.52-9.88L43.52-9.88Q43.72-9.88 43.92-9.86Q44.12-9.84 44.56-9.84L44.56-9.84Q45.72-9.84 46.82-9.96Q47.92-10.08 48.24-10.16L48.24-10.16Q48.36-10.12 48.80-10.06Q49.24-10 49.80-9.96Q50.36-9.92 50.96-9.90Q51.56-9.88 52.08-9.88L52.08-9.88Q52.80-9.88 53-9.90Q53.20-9.92 53.52-9.92L53.52-9.92Q54.64-9.92 55.58-9.82Q56.52-9.72 57.16-9.72L57.16-9.72Q57.52-9.72 57.68-9.76L57.68-9.76Q57.84-9.72 58.18-9.66Q58.52-9.60 58.96-9.54Q59.40-9.48 59.86-9.44Q60.32-9.40 60.68-9.40L60.68-9.40Q61.04-9.40 61.36-9.48ZM53.64-0.40L53.64-0.48Q53.64-0.56 53.66-0.68Q53.68-0.80 53.68-0.92L53.68-0.92Q53.68-2.24 53.48-3.04Q53.28-3.84 52.92-4.30Q52.56-4.76 52.02-5.02Q51.48-5.28 50.84-5.56L50.84-5.56Q50.44-5.72 50.16-5.82Q49.88-5.92 49.68-5.88L49.68-5.88Q49.60-5.88 49.52-5.84Q49.44-5.80 48.88-5.80L48.88-5.80Q48.68-5.80 48.42-5.82Q48.16-5.84 47.96-5.84L47.96-5.84Q47.56-5.84 47.42-5.84Q47.28-5.84 47.16-5.76Q47.04-5.68 46.88-5.46Q46.72-5.24 46.28-4.76L46.28-4.76Q45.76-4.20 45.50-3.82Q45.24-3.44 45.12-3.12Q45-2.80 44.98-2.52Q44.96-2.24 44.96-1.88L44.96-1.88Q44.96-1.40 44.98-0.96Q45-0.52 45.14-0.08Q45.28 0.36 45.60 0.84Q45.92 1.32 46.48 1.88L46.48 1.88Q47.20 2.60 47.62 2.82Q48.04 3.04 48.64 3.04L48.64 3.04Q49.40 3.04 50.26 2.80Q51.12 2.56 52 2.24L52 2.24Q52.24 1.96 52.52 1.58Q52.80 1.20 53.06 0.84Q53.32 0.48 53.48 0.14Q53.64-0.20 53.64-0.40L53.64-0.40ZM51.88-2.48L51.88-2.48L51.88-2.32Q51.88-2.08 51.80-1.56Q51.72-1.04 51.58-0.50Q51.44 0.04 51.24 0.48Q51.04 0.92 50.80 1L50.80 1Q50.48 1.16 49.94 1.24Q49.40 1.32 48.76 1.36L48.76 1.36Q47.68 1.08 47.18 0.10Q46.68-0.88 46.68-1.84L46.68-1.84Q46.68-2.64 47.06-3.12Q47.44-3.60 47.90-3.86Q48.36-4.12 48.78-4.20Q49.20-4.28 49.32-4.28L49.32-4.28Q49.88-4.28 50.34-4.02Q50.80-3.76 51.14-3.44Q51.48-3.12 51.68-2.82Q51.88-2.52 51.88-2.48Z M87.20-14.52L87.20-14.52Q86.92-15.16 86.62-15.52Q86.32-15.88 85.86-16.26Q85.40-16.64 84.80-17.20Q84.20-17.76 83.32-18.80L83.32-18.80Q83.92-19.64 84.40-20.30Q84.88-20.96 84.88-21.88L84.88-21.88Q84.48-22.16 83.94-22.36Q83.40-22.56 82.88-22.56L82.88-22.56L82.56-22.56Q81.12-22.80 79.58-22.90Q78.04-23 76.88-23L76.88-23Q76.68-22.96 76.52-22.70Q76.36-22.44 76.36-22.04L76.36-22.04Q76.36-21.64 76.90-21.46Q77.44-21.28 78.22-21.20Q79-21.12 79.82-21.10Q80.64-21.08 81.20-21.04L81.20-21.04Q81.96-20.92 82.40-20.92L82.40-20.92L82.80-20.92Q81.92-19.80 81.24-18.88Q80.56-17.96 80.16-17.60L80.16-17.60L79.40-16.52Q78.88-15.76 78.80-15.52L78.80-15.52Q78.52-15 78-14.50Q77.48-14 77.36-13.32L77.36-13.32Q77.44-13.12 77.70-12.90Q77.96-12.68 78.28-12.68L78.28-12.68Q78.56-12.68 79.06-13.20Q79.56-13.72 80.14-14.48Q80.72-15.24 81.32-16.10Q81.92-16.96 82.48-17.64L82.48-17.64Q82.92-17.12 83.10-16.88Q83.28-16.64 83.34-16.54Q83.40-16.44 83.44-16.42Q83.48-16.40 83.60-16.36L83.60-16.36Q84.20-15.92 84.42-15.50Q84.64-15.08 85-14.76L85-14.76Q85.44-14.44 85.78-14.04Q86.12-13.64 86.56-13.56L86.56-13.56Q86.76-13.64 87-13.88Q87.24-14.12 87.24-14.36L87.24-14.36Q87.24-14.44 87.22-14.46Q87.20-14.48 87.20-14.52ZM94.16-8L94.16-8Q94-8.04 93.56-8.04L93.56-8.04Q93.24-8.04 92.76-8Q92.28-7.96 91.84-7.90Q91.40-7.84 91.02-7.80Q90.64-7.76 90.48-7.72L90.48-7.72Q90.32-7.76 89.84-7.76L89.84-7.76Q89.12-7.76 88-7.66Q86.88-7.56 85.64-7.56L85.64-7.56L85.28-7.56Q84.96-7.56 84.32-7.54Q83.68-7.52 83-7.48Q82.32-7.44 81.74-7.42Q81.16-7.40 81.04-7.36L81.04-7.36Q80.92-7.40 80.52-7.46Q80.12-7.52 79.60-7.56Q79.08-7.60 78.48-7.62Q77.88-7.64 77.36-7.64L77.36-7.64Q76.92-7.64 76.72-7.60Q76.52-7.56 76.32-7.56L76.32-7.56Q76.08-7.56 75.46-7.62Q74.84-7.68 74.28-7.68L74.28-7.68Q74-7.68 73.78-7.66Q73.56-7.64 73.36-7.60L73.36-7.60Q73.28-7.64 73-7.66Q72.72-7.68 72.34-7.72Q71.96-7.76 71.54-7.78Q71.12-7.80 70.76-7.80L70.76-7.80Q70.12-7.80 69.86-7.50Q69.60-7.20 69.60-6.84L69.60-6.84Q69.60-6.40 69.92-6.18Q70.24-5.96 71.12-5.96L71.12-5.96Q71.36-5.96 71.66-5.98Q71.96-6 72.24-6L72.24-6Q72.76-6 72.92-6Q73.08-6 73.40-5.98Q73.72-5.96 74.50-5.94Q75.28-5.92 77.04-5.88L77.04-5.88Q78.72-5.84 79.72-5.84Q80.72-5.84 81.12-5.80L81.12-5.80Q81.12-5.52 81.14-5.26Q81.16-5 81.16-4.72L81.16-4.72Q81.16-3.80 81.12-3.24Q81.08-2.68 81.02-2.20Q80.96-1.72 80.92-1.22Q80.88-0.72 80.88 0L80.88 0Q80.92 0.48 80.90 0.84Q80.88 1.20 80.94 1.46Q81 1.72 81.18 1.86Q81.36 2 81.80 2L81.80 2Q82.16 2 82.38 1.74Q82.60 1.48 82.70 1.06Q82.80 0.64 82.82 0.14Q82.84-0.36 82.84-0.84L82.84-0.84Q82.84-1.28 82.80-1.44L82.80-1.44Q82.80-1.52 82.82-1.70Q82.84-1.88 82.84-2.12L82.84-2.12Q82.84-2.44 82.82-2.92Q82.80-3.40 82.80-3.96L82.80-3.96Q82.80-5.20 82.96-5.80L82.96-5.80L86.88-5.92Q90.52-6.08 92.48-6.30Q94.44-6.52 94.44-7.40L94.44-7.40Q94.44-7.76 94.16-8Z"/></g>
</svg>
</g></svg></svg>